<svg width="46" height="28" viewBox="0 0 46 28" fill="none" xmlns="http://www.w3.org/2000/svg">
<path fill-rule="evenodd" clip-rule="evenodd" d="M0 3.60217C0 0.627833 2.19441 -0.782769 4.90094 0.451961L21.9516 8.22854C24.6579 9.46303 26.8525 12.8747 26.8525 15.8505V22.614C26.8525 25.5883 24.4406 28.0002 21.4675 28.0002H5.38477C2.41044 28.0002 0 25.5883 0 22.6152V3.60217Z" fill="#4F47FB"/>
<path fill-rule="evenodd" clip-rule="evenodd" d="M9.61914 3.59574C9.61914 0.621405 11.8135 -0.787988 14.5186 0.447953L31.54 8.22066C34.2465 9.4566 36.4395 12.8695 36.4395 15.8468V22.6102C36.4395 25.586 34.0266 27.9979 31.052 27.9979H15.0054C12.031 27.9979 9.61914 25.586 9.61914 22.6129V3.59574Z" fill="#4081FE"/>
<path fill-rule="evenodd" clip-rule="evenodd" d="M19.2383 3.59973C19.2383 0.625392 21.4327 -0.785211 24.1392 0.44952L41.1898 8.2261C43.8964 9.46059 46.0908 12.8723 46.0908 15.8481V22.6115C46.0908 25.5859 43.6789 27.9978 40.7058 27.9978H24.6233C21.6487 27.9978 19.2383 25.5859 19.2383 22.6127V3.59973Z" fill="#1BE7AA"/>

</svg>
